<svg width="36" height="36" viewBox="0 0 36 36" fill="none" xmlns="http://www.w3.org/2000/svg">
<circle cx="18" cy="18" r="18" fill="#f00"/>
<g clip-path="url(#clip0_34_577)">
<path d="M11.6346 24.9999C11.5091 25 11.3863 24.9627 11.2819 24.893C11.1775 24.8232 11.0961 24.7241 11.0481 24.6081C11 24.4921 10.9875 24.3644 11.012 24.2413C11.0365 24.1181 11.0969 24.005 11.1857 23.9163L22.9162 12.1858C23.0353 12.0667 23.1967 11.9998 23.3651 11.9998C23.5335 11.9998 23.695 12.0667 23.814 12.1858C23.9331 12.3048 24 12.4663 24 12.6347C24 12.8031 23.9331 12.9645 23.814 13.0836L12.0835 24.8141C12.0246 24.8731 11.9547 24.9199 11.8776 24.9518C11.8006 24.9837 11.718 25 11.6346 24.9999Z" fill="#000"/>
<path d="M23.3652 24.9999C23.2818 25 23.1992 24.9837 23.1222 24.9518C23.0452 24.9199 22.9752 24.8731 22.9163 24.8141L11.1858 13.0836C11.0668 12.9645 10.9999 12.8031 10.9999 12.6347C10.9999 12.4663 11.0668 12.3048 11.1858 12.1858C11.3049 12.0667 11.4664 11.9998 11.6347 11.9998C11.8031 11.9998 11.9646 12.0667 12.0836 12.1858L23.8141 23.9163C23.9029 24.005 23.9634 24.1181 23.9879 24.2413C24.0124 24.3644 23.9998 24.4921 23.9518 24.6081C23.9037 24.7241 23.8223 24.8232 23.7179 24.893C23.6135 24.9627 23.4908 25 23.3652 24.9999Z" fill="#000"/>
</g>
<defs>
<clipPath id="clip0_34_577">
<rect width="13" height="13" fill="white" transform="translate(11 12)"/>
</clipPath>
</defs>
</svg>
