<svg width="17" height="13" viewBox="0 0 17 13" fill="none" xmlns="http://www.w3.org/2000/svg">
<path d="M15.5059 0.523438H1.49414C0.671965 0.523438 0 1.19245 0 2.01758V10.9824C0 11.8079 0.672396 12.4766 1.49414 12.4766H15.5059C16.328 12.4766 17 11.8076 17 10.9824V2.01758C17 1.19225 16.3277 0.523438 15.5059 0.523438ZM15.2764 1.51953C14.7934 2.0042 9.11907 7.69697 8.88595 7.93086C8.69125 8.12616 8.30885 8.12629 8.11405 7.93086L1.72357 1.51953H15.2764ZM0.996094 10.7993V2.20069L5.28146 6.5L0.996094 10.7993ZM1.72357 11.4805L5.98466 7.2055L7.40858 8.63406C7.99209 9.21947 9.00814 9.21924 9.59145 8.63406L11.0154 7.20553L15.2764 11.4805H1.72357ZM16.0039 10.7993L11.7185 6.5L16.0039 2.20069V10.7993Z" fill="#000"/>
</svg>
