<svg width="13" height="17" viewBox="0 0 13 17" fill="none" xmlns="http://www.w3.org/2000/svg">
<path d="M6.5 0.5C4 0.5 2 2.5 2 5V7C1.15 7 0.5 7.65 0.5 8.50001V15C0.5 15.85 1.15 16.5 2 16.5H11C11.85 16.5 12.5 15.85 12.5 15V8.50001C12.5 7.65 11.85 7 11 7V5C11 2.5 9.00001 0.5 6.5 0.5ZM11.5 8.50001V15C11.5 15.3 11.3 15.5 11 15.5H2C1.7 15.5 1.5 15.3 1.5 15V8.50001C1.5 8.20001 1.7 8.00001 2 8.00001H2.5H10.5H11C11.3 8.00001 11.5 8.20001 11.5 8.50001ZM3 7V5C3 3.05 4.55 1.5 6.5 1.5C8.45001 1.5 10 3.05 10 5V7H3Z" fill="white"/>
<path d="M6.5 9.5C5.65 9.5 5 10.15 5 11C5 11.65 5.4 12.2 6 12.4V13.5C6 13.8 6.2 14 6.5 14C6.8 14 7 13.8 7 13.5V12.4C7.6 12.2 8 11.65 8 11C8 10.15 7.35 9.5 6.5 9.5ZM6.5 11.5C6.2 11.5 6 11.3 6 11C6 10.7 6.2 10.5 6.5 10.5C6.8 10.5 7 10.7 7 11C7 11.3 6.8 11.5 6.5 11.5Z" fill="white"/>
</svg>
