<svg width="50" height="50" viewBox="0 0 50 50" fill="none" xmlns="http://www.w3.org/2000/svg">
<path d="M49.3753 20.0661L42.0898 13.9948V6.54297C42.0898 5.73398 41.434 5.07813 40.625 5.07813H31.4058L25.9594 0.357912C25.4087 -0.119334 24.5912 -0.119334 24.0406 0.357912L18.5942 5.07813H9.375C8.56602 5.07813 7.91016 5.73398 7.91016 6.54297V13.9948L0.624707 20.0661C0.29082 20.3443 0.0976562 20.7566 0.0976562 21.1914V48.5351C0.0976562 49.3441 0.753516 50 1.5625 50H48.4375C49.2465 50 49.9023 49.3441 49.9023 48.5351V21.1914C49.9023 20.7566 49.7092 20.3443 49.3753 20.0661ZM16.7546 34.8633L3.02734 45.5401V24.1864L16.7546 34.8633ZM19.6432 36.3281H30.3567L44.1682 47.0703H5.83184L19.6432 36.3281ZM33.2454 34.8633L46.9727 24.1864V45.5401L33.2454 34.8633ZM46.1021 21.152L42.0898 24.2728V17.8084L46.1021 21.152ZM25 3.40332L26.9325 5.07813H23.0675L25 3.40332ZM39.1602 8.00781V26.5514L30.3568 33.3984H19.6432L10.8398 26.5514V8.00781H39.1602ZM7.91016 24.2728L3.89785 21.152L7.91016 17.8085V24.2728Z" fill="white"/>
</svg>
