<svg width="18" height="16" viewBox="0 0 18 16" fill="none" xmlns="http://www.w3.org/2000/svg">
<path fill-rule="evenodd" clip-rule="evenodd" d="M9 0.5C7.125 0.5 5.5 1 4.125 2L5.125 2.875C6.25 2.125 7.5 1.75 9 1.75C13.125 1.75 16.5 5.125 16.5 9.25H17.75C17.75 4.375 13.875 0.5 9 0.5ZM0.25 1.75L2.25 3.625C1 5.125 0.25 7.125 0.25 9.25H1.5C1.5 7.375 2.125 5.75 3.25 4.5L6 7C5.5 7.625 5.25 8.375 5.25 9.25C5.25 11.375 6.875 13 9 13C10 13 10.875 12.625 11.5 12L15.25 15.5L16.125 14.625L1.125 0.875L0.25 1.75ZM6.875 7.875L10.5 11.25C10.125 11.5 9.625 11.75 9 11.75C7.625 11.75 6.5 10.625 6.5 9.25C6.5 8.75 6.625 8.25 6.875 7.875ZM12.75 9.875L11.5 8.75C11.25 7.75 10.375 6.875 9.25 6.75L8 5.625C8.375 5.5 8.625 5.5 9 5.5C11.125 5.5 12.75 7.125 12.75 9.25V9.875Z" fill="#000"/>
</svg>
