<svg width="54" height="54" viewBox="0 0 54 54" fill="none" xmlns="http://www.w3.org/2000/svg">
<path d="M23.8359 34.8047C24.7096 34.8047 25.418 34.0964 25.418 33.2227C25.418 32.3503 26.1277 31.6406 27 31.6406C27.8723 31.6406 28.582 32.3503 28.582 33.2227C28.582 33.7859 28.2785 34.3113 27.7901 34.5939C26.3269 35.4401 25.418 37.0151 25.418 38.7041V39.5508C25.418 40.4245 26.1263 41.1328 27 41.1328C27.8737 41.1328 28.582 40.4245 28.582 39.5508V38.7041C28.582 38.1409 28.8856 37.6154 29.3743 37.3328C30.8373 36.4864 31.7461 34.9115 31.7461 33.2227C31.7461 30.6057 29.617 28.4766 27 28.4766C24.383 28.4766 22.2539 30.6057 22.2539 33.2227C22.2539 34.0964 22.9622 34.8047 23.8359 34.8047ZM44.4023 22.1484H42.8203V15.8203C42.8203 7.09699 35.7233 0 27 0C18.2767 0 11.1797 7.09699 11.1797 15.8203V22.1484H9.59766C8.72395 22.1484 8.01562 22.8568 8.01562 23.7305V52.418C8.01562 53.2917 8.72395 54 9.59766 54H44.4023C45.276 54 45.9844 53.2917 45.9844 52.418V23.7305C45.9844 22.8568 45.276 22.1484 44.4023 22.1484ZM14.3438 15.8203C14.3438 8.84166 20.0213 3.16406 27 3.16406C33.9787 3.16406 39.6562 8.84166 39.6562 15.8203V22.1484H36.4922V15.8203C36.4922 10.5863 32.234 6.32812 27 6.32812C21.766 6.32812 17.5078 10.5863 17.5078 15.8203V22.1484H14.3438V15.8203ZM33.3281 15.8203V22.1484H20.6719V15.8203C20.6719 12.331 23.5107 9.49219 27 9.49219C30.4893 9.49219 33.3281 12.331 33.3281 15.8203ZM42.8203 30.0586H41.2771C40.4034 30.0586 39.6951 30.7669 39.6951 31.6406C39.6951 32.5143 40.4034 33.2227 41.2771 33.2227H42.8203V36.3867H41.2771C40.4034 36.3867 39.6951 37.095 39.6951 37.9688C39.6951 38.8425 40.4034 39.5508 41.2771 39.5508H42.8203V42.7148H41.2771C40.4034 42.7148 39.6951 43.4232 39.6951 44.2969C39.6951 45.1706 40.4034 45.8789 41.2771 45.8789H42.8203V50.8359H11.1797V45.8789H12.7617C13.6354 45.8789 14.3438 45.1706 14.3438 44.2969C14.3438 43.4232 13.6354 42.7148 12.7617 42.7148H11.1797V39.5508H12.7617C13.6354 39.5508 14.3438 38.8425 14.3438 37.9688C14.3438 37.095 13.6354 36.3867 12.7617 36.3867H11.1797V33.2227H12.7617C13.6354 33.2227 14.3438 32.5143 14.3438 31.6406C14.3438 30.7669 13.6354 30.0586 12.7617 30.0586H11.1797V25.3125H42.8203V30.0586ZM27 44.2969C26.1263 44.2969 25.418 45.0052 25.418 45.8789C25.418 46.7526 26.1263 47.4609 27 47.4609C27.8737 47.4609 28.582 46.7526 28.582 45.8789C28.582 45.0052 27.8737 44.2969 27 44.2969Z" fill="white"/>
</svg>
