<svg width="19" height="19" viewBox="0 0 19 19" fill="none" xmlns="http://www.w3.org/2000/svg">
<path d="M13.3 0H5.7C4.65274 0 3.8 0.852736 3.8 1.9V17.1C3.8 18.148 4.65274 19 5.7 19H13.3C14.3481 19 15.2 18.148 15.2 17.1V1.9C15.2 0.852736 14.3481 0 13.3 0ZM14.44 17.1C14.44 17.7285 13.9285 18.24 13.3 18.24H5.7C5.07148 18.24 4.56 17.7285 4.56 17.1V1.9C4.56 1.27148 5.07148 0.76 5.7 0.76H13.3C13.9285 0.76 14.44 1.27148 14.44 1.9V17.1Z" fill="#01B6F7"/>
<path d="M10.26 1.51999H8.74C8.53022 1.51999 8.36 1.69025 8.36 1.89999C8.36 2.10973 8.53026 2.27999 8.74 2.27999H10.26C10.4697 2.27999 10.64 2.10973 10.64 1.89999C10.64 1.69025 10.4697 1.51999 10.26 1.51999Z" fill="#01B6F7"/>
<path d="M9.5 16.72C9.29025 16.72 9.12 16.8903 9.12 17.1C9.12 17.3097 9.29025 17.48 9.5 17.48C9.70974 17.48 9.88 17.3097 9.88 17.1C9.88 16.8903 9.70974 16.72 9.5 16.72Z" fill="#01B6F7"/>
<path d="M14.82 3.04001H4.18C3.97022 3.04001 3.8 3.21027 3.8 3.42001C3.8 3.62979 3.97022 3.80001 4.18 3.80001H14.82C15.0297 3.80001 15.2 3.62975 15.2 3.42001C15.2 3.21027 15.0297 3.04001 14.82 3.04001Z" fill="#01B6F7"/>
<path d="M14.82 15.2H4.18C3.97022 15.2 3.8 15.3703 3.8 15.58C3.8 15.7898 3.97022 15.96 4.18 15.96H14.82C15.0297 15.96 15.2 15.7898 15.2 15.58C15.2 15.3703 15.0297 15.2 14.82 15.2Z" fill="#01B6F7"/>
</svg>
