<svg width="18" height="14" viewBox="0 0 18 14" fill="none" xmlns="http://www.w3.org/2000/svg">
<path fill-rule="evenodd" clip-rule="evenodd" d="M0.25 9.5C0.25 4.625 4.125 0.75 9 0.75C13.875 0.75 17.75 4.625 17.75 9.5H16.5C16.5 5.375 13.125 2 9 2C4.875 2 1.5 5.375 1.5 9.5H0.25ZM5.25 9.5C5.25 7.375 6.875 5.75 9 5.75C11.125 5.75 12.75 7.375 12.75 9.5C12.75 11.625 11.125 13.25 9 13.25C6.875 13.25 5.25 11.625 5.25 9.5ZM6.5 9.5C6.5 10.875 7.625 12 9 12C10.375 12 11.5 10.875 11.5 9.5C11.5 8.125 10.375 7 9 7C7.625 7 6.5 8.125 6.5 9.5Z" fill="#000"/>
</svg>
