<svg width="122" height="128" viewBox="0 0 122 128" fill="none" xmlns="http://www.w3.org/2000/svg">
<path d="M119.154 64C119.154 31.934 93.0661 5.84616 61 5.84616C28.934 5.84616 2.84619 31.934 2.84619 64C2.84619 96.0661 28.934 122.154 61 122.154C93.0661 122.154 119.154 96.0661 119.154 64ZM61 116.615C31.9876 116.615 8.38465 93.0124 8.38465 64C8.38465 34.9876 31.9876 11.3846 61 11.3846C90.0124 11.3846 113.615 34.9876 113.615 64C113.615 93.0124 90.0124 116.615 61 116.615Z" fill="white"/>
<path d="M61.0001 19.6923C36.5688 19.6923 16.6924 39.5687 16.6924 64C16.6924 88.4315 36.5688 108.308 61.0001 108.308C85.4316 108.308 105.308 88.4315 105.308 64C105.308 39.5687 85.4316 19.6923 61.0001 19.6923ZM63.7693 102.669V97.1164C80.8017 95.7044 94.2309 81.3908 94.2309 64C94.2309 62.4705 92.9908 61.2308 91.4616 61.2308C89.9324 61.2308 88.6924 62.4705 88.6924 64C88.6924 79.2698 76.2699 91.6923 61.0001 91.6923C59.4706 91.6923 58.2308 92.9324 58.2308 94.4615V102.669C38.1412 101.244 22.2308 84.4463 22.2308 64C22.2308 43.5539 38.1412 26.7555 58.2308 25.3307V30.8836C41.1984 32.2956 27.7693 46.6092 27.7693 64C27.7693 65.5292 29.0091 66.7692 30.5385 66.7692C32.068 66.7692 33.3078 65.5292 33.3078 64C33.3078 48.7305 45.7305 36.3077 61.0001 36.3077C62.5292 36.3077 63.7693 35.0679 63.7693 33.5385V25.3307C83.8592 26.7558 99.7693 43.5539 99.7693 64C99.7693 84.4463 83.8592 101.244 63.7693 102.669Z" fill="white"/>
<path d="M119.154 102.769C120.683 102.769 121.923 101.529 121.923 100C121.923 98.4706 120.683 97.2308 119.154 97.2308C117.625 97.2308 116.385 98.4706 116.385 100C116.385 101.529 117.625 102.769 119.154 102.769Z" fill="white"/>
<path d="M2.84638 33.5385C4.37578 33.5385 5.61561 32.2986 5.61561 30.7692C5.61561 29.2398 4.37578 28 2.84638 28C1.31697 28 0.0771484 29.2398 0.0771484 30.7692C0.0771484 32.2986 1.31697 33.5385 2.84638 33.5385Z" fill="white"/>
<path d="M19.4616 124.923C20.991 124.923 22.2308 123.683 22.2308 122.154C22.2308 120.624 20.991 119.385 19.4616 119.385C17.9322 119.385 16.6924 120.624 16.6924 122.154C16.6924 123.683 17.9322 124.923 19.4616 124.923Z" fill="white"/>
<path d="M99.7692 5.84615C101.299 5.84615 102.538 4.60633 102.538 3.07692C102.538 1.54752 101.299 0.307693 99.7692 0.307693C98.2398 0.307693 97 1.54752 97 3.07692C97 4.60633 98.2398 5.84615 99.7692 5.84615Z" fill="white"/>
<path d="M12.5385 22.4615C17.8828 22.4615 22.2308 18.1136 22.2308 12.7692C22.2308 7.42489 17.8828 3.07692 12.5385 3.07692C7.19416 3.07692 2.84619 7.42489 2.84619 12.7692C2.84619 18.1136 7.19416 22.4615 12.5385 22.4615ZM12.5385 8.61538C14.8289 8.61538 16.6923 10.4788 16.6923 12.7692C16.6923 15.0597 14.8289 16.9231 12.5385 16.9231C10.2481 16.9231 8.38465 15.0597 8.38465 12.7692C8.38465 10.4788 10.2481 8.61538 12.5385 8.61538Z" fill="#E8F7FD"/>
<path d="M105.308 111.077C100.727 111.077 97 114.804 97 119.385C97 123.965 100.727 127.692 105.308 127.692C109.889 127.692 113.615 123.965 113.615 119.385C113.615 114.804 109.889 111.077 105.308 111.077ZM105.308 122.154C103.781 122.154 102.538 120.912 102.538 119.385C102.538 117.858 103.781 116.615 105.308 116.615C106.835 116.615 108.077 117.858 108.077 119.385C108.077 120.912 106.835 122.154 105.308 122.154Z" fill="#E8F7FD"/>
<path d="M71.7988 48.9489L54.1754 66.5723L50.2589 62.6558C47.0197 59.4169 41.7493 59.4172 38.5101 62.6561C35.2635 65.9027 35.2629 71.1576 38.5101 74.4051L52.217 88.112C53.2987 89.1933 55.0519 89.1931 56.1335 88.112L83.5475 60.698C86.7939 57.4516 86.7945 52.1961 83.5475 48.9489C80.3086 45.7101 75.038 45.7103 71.7988 48.9489ZM79.6313 56.7817L54.1754 82.2376L42.4267 70.4888C41.3469 69.4091 41.3469 67.6523 42.4267 66.5723C43.5064 65.4929 45.2632 65.4929 46.3429 66.5723L52.2173 72.447C53.2984 73.5278 55.0524 73.5281 56.1338 72.447L75.7153 52.8655C76.7945 51.7857 78.5516 51.7855 79.6316 52.8655C80.7135 53.9477 80.7138 55.6992 79.6313 56.7817Z" fill="white"/>
</svg>
